<?xml version="1.0" encoding="iso-8859-1"?><!-- Generator: Adobe Illustrator 22.1.0, SVG Export Plug-In . SVG Version: 6.00 Build 0)  --><svg xmlns="http://www.w3.org/2000/svg" xmlns:xlink="http://www.w3.org/1999/xlink" viewBox="0 0 48 48" width="48px" height="48px"><g><g><g></g></g></g><path style="fill:#6D4C41;" d="M39,25c0-2,0-0.216,0-2C39,9,34,2,24,2S9,10,9,22c0,1.784,0,1,0,3H39z"/><path style="fill:#A1887F;" d="M39,25L39,25c0-7-4-12-7-12v-3c-3,0-4,2-4,2V8c0,0-3,1-4,3c-1-2-4-3-4-3s0,1,0,3c0,0-1-1-4-1v3  c-3,0-7,5-7,12v0c0,9-2.375,14.125-3,15h5v5l6-3l3,4l4-3l4,3l3-4l6,3v-5h5C41.375,39.125,39,34,39,25z"/><path style="fill:#8D6E63;" d="M23,29c-0.127,0-0.877,0-1,0c-6,0-7,6-7,6s2-3,4-3s3,0,3,0c0.552,0,1-0.448,1-1V29z"/><path style="fill:#8D6E63;" d="M25,29c0.127,0,0.877,0,1,0c6,0,7,6,7,6s-2-3-4-3s-3,0-3,0c-0.552,0-1-0.448-1-1V29z"/><path style="fill:#212121;" d="M29,36H19c-1.1,0-2-0.9-2-2v0c0-1.1,0.9-2,2-2h10c1.1,0,2,0.9,2,2v0C31,35.1,30.1,36,29,36z"/><polygon style="fill:#FFFFFF;" points="19,32 20,34 21,32 "/><polygon style="fill:#FFFFFF;" points="27,32 28,34 29,32 "/><polygon style="fill:#FFFFFF;" points="27,36 26,34 25,36 "/><polygon style="fill:#FFFFFF;" points="23,36 22,34 21,36 "/><path style="fill:#424242;" d="M27,28c0,0.82-0.67,1.63-2,1.9c-0.3,0.07-0.63,0.1-1,0.1s-0.7-0.03-1-0.1c-1.33-0.27-2-1.08-2-1.9  c0-0.5,1-3,3-3S27,27.5,27,28z"/><path style="fill:#212121;" d="M23,29.5v0.4c-1.33-0.27-2-1.08-2-1.9h0.5C22.33,28,23,28.67,23,29.5z"/><path style="fill:#212121;" d="M27,28c0,0.82-0.67,1.63-2,1.9v-0.4c0-0.83,0.67-1.5,1.5-1.5H27z"/><path style="fill:#6D4C41;" d="M29,18c-1.657,0-3,1.343-3,3s1.343,3,3,3c5,0,6,2,6,2S35,18,29,18z"/><circle style="fill:#212121;" cx="29" cy="21" r="1"/><path style="fill:#6D4C41;" d="M19,18c1.657,0,3,1.343,3,3s-1.343,3-3,3c-5,0-6,2-6,2S13,18,19,18z"/><circle style="fill:#212121;" cx="19" cy="21" r="1"/></svg>